<svg width="140" height="140" viewBox="0 0 140 140" fill="none" xmlns="http://www.w3.org/2000/svg">
<path d="M81.6386 11.6438L85.0801 16.6306L90.6232 14.1837L93.2422 19.6475L99.0997 18.0978L100.832 23.904L106.86 23.2897L107.662 29.2954L113.712 29.6316L113.565 35.6889L119.488 36.9674L118.395 42.9272L124.045 45.1164L122.033 50.8318L127.271 53.8779L124.39 59.2083L129.087 63.0363L125.407 67.8504L129.448 72.3659L125.06 76.5452L128.344 81.6372L123.358 85.0787L125.805 90.6217L120.341 93.2407L121.89 99.0983L116.084 100.83L116.699 106.858L110.693 107.661L110.357 113.71L104.299 113.563L103.021 119.486L97.061 118.393L94.8718 124.043L89.1564 122.032L86.1103 127.269L80.7799 124.388L76.9519 129.085L72.1378 125.406L67.6223 129.446L63.443 125.059L58.351 128.343L54.9095 123.356L49.3665 125.803L46.7475 120.339L40.8899 121.889L39.1579 116.083L33.13 116.697L32.3276 110.691L26.2778 110.355L26.4247 104.298L20.5021 103.019L21.5948 97.0596L15.945 94.8703L17.9566 89.1549L12.7188 86.1088L15.5997 80.7784L10.903 76.9505L14.5823 72.1364L10.5422 67.6208L14.9292 63.4415L11.6453 58.3496L16.6321 54.908L14.1851 49.365L19.649 46.746L18.0992 40.8884L23.9055 39.1564L23.2912 33.1285L29.2969 32.3261L29.6331 26.2763L35.6904 26.4233L36.9689 20.5006L42.9286 21.5933L45.1178 15.9435L50.8333 17.9551L53.8794 12.7173L59.2098 15.5982L63.0377 10.9015L67.8518 14.5808L72.3674 10.5407L76.5466 14.9278L81.6386 11.6438Z" fill="#FFCE4F"/>
<path d="M72.128 114.642C72.3258 114.63 72.5099 114.666 72.6802 114.75C72.8454 114.84 72.9821 114.961 73.0904 115.115C73.1935 115.274 73.2509 115.453 73.2625 115.651C73.2802 115.953 73.1908 116.214 72.9943 116.435C72.7977 116.657 72.5511 116.776 72.2543 116.793C71.9466 116.811 71.6822 116.722 71.4611 116.526C71.24 116.329 71.1206 116.08 71.1029 115.777C71.0851 115.475 71.1745 115.213 71.3711 114.992C71.568 114.777 71.8203 114.66 72.128 114.642Z" fill="#141513"/>
<path d="M63.2959 117.088C63.1784 117.587 62.9195 117.948 62.5192 118.171C62.1135 118.393 61.6337 118.458 61.08 118.365C60.7 118.301 60.383 118.178 60.129 117.995C59.875 117.813 59.697 117.593 59.5951 117.336C59.4933 117.079 59.467 116.804 59.5163 116.511C59.5729 116.174 59.7108 115.902 59.9301 115.693C60.1494 115.484 60.3908 115.36 60.6542 115.321L60.6597 115.288C60.3558 115.136 60.1362 114.915 60.0009 114.625C59.8647 114.339 59.8303 113.996 59.8979 113.594C59.9518 113.274 60.073 113.001 60.2615 112.776C60.4501 112.551 60.7006 112.389 61.0129 112.291C61.3244 112.199 61.6809 112.186 62.0826 112.254C62.6689 112.352 63.1269 112.583 63.4567 112.945C63.7801 113.312 63.908 113.78 63.8402 114.349L62.9445 114.199C62.9711 113.907 62.8996 113.652 62.7298 113.434C62.559 113.221 62.3027 113.086 61.9607 113.028C61.6295 112.973 61.3593 113.019 61.1501 113.168C60.9399 113.323 60.8106 113.544 60.7622 113.832C60.6983 114.212 60.7753 114.501 60.9931 114.699C61.2046 114.902 61.56 115.046 62.0594 115.13L62.2711 115.165L62.1424 115.931L61.9225 115.894C61.4819 115.825 61.1358 115.843 60.884 115.945C60.6269 116.047 60.4727 116.25 60.4216 116.554C60.3778 116.815 60.4272 117.035 60.57 117.215C60.7118 117.401 60.9374 117.52 61.2468 117.572C61.5508 117.623 61.8002 117.584 61.9949 117.455C62.1888 117.331 62.3211 117.158 62.3921 116.936L63.2959 117.088Z" fill="#141513"/>
<path d="M57.4724 114.394C57.1849 115.302 56.8084 115.962 56.3429 116.375C55.8704 116.791 55.259 116.88 54.5085 116.643C53.7581 116.405 53.3121 115.981 53.1705 115.37C53.0221 114.763 53.0916 114.006 53.3791 113.098C53.6699 112.18 54.0523 111.51 54.5264 111.088C54.9936 110.67 55.6025 110.58 56.3529 110.818C57.1034 111.055 57.552 111.48 57.6988 112.093C57.8386 112.708 57.7632 113.476 57.4724 114.394ZM54.2607 113.377C54.1261 113.802 54.0412 114.171 54.0058 114.483C53.9653 114.793 53.9999 115.067 54.1096 115.304C54.2178 115.546 54.4371 115.719 54.7677 115.824C55.0983 115.929 55.3775 115.913 55.6053 115.778C55.8314 115.647 56.0198 115.444 56.1706 115.168C56.3161 114.891 56.4562 114.54 56.5908 114.115C56.7303 113.674 56.8212 113.296 56.8635 112.98C56.9057 112.664 56.8719 112.388 56.7622 112.151C56.6471 111.913 56.4243 111.741 56.0937 111.636C55.7631 111.532 55.4847 111.545 55.2587 111.675C55.0273 111.804 54.8381 112.01 54.6909 112.292C54.5437 112.575 54.4003 112.936 54.2607 113.377Z" fill="#141513"/>
<path d="M51.1328 112.096C50.7162 112.952 50.2476 113.551 49.7269 113.891C49.1989 114.234 48.581 114.234 47.8731 113.889C47.1653 113.545 46.7858 113.06 46.7347 112.436C46.6762 111.813 46.8552 111.074 47.2718 110.218C47.6932 109.351 48.1691 108.744 48.6996 108.396C49.2227 108.051 49.8381 108.05 50.546 108.395C51.2538 108.739 51.6358 109.225 51.6919 109.852C51.7406 110.482 51.5542 111.23 51.1328 112.096ZM48.1034 110.622C47.9084 111.023 47.7706 111.376 47.6903 111.679C47.6049 111.981 47.5993 112.256 47.6734 112.507C47.7451 112.762 47.9369 112.965 48.2488 113.117C48.5606 113.269 48.8391 113.294 49.0842 113.193C49.3268 113.097 49.5428 112.923 49.7321 112.673C49.9165 112.419 50.1062 112.092 50.3012 111.691C50.5035 111.276 50.6485 110.915 50.7363 110.608C50.824 110.302 50.8308 110.024 50.7567 109.774C50.6776 109.521 50.4822 109.319 50.1703 109.167C49.8585 109.015 49.5812 108.987 49.3385 109.084C49.0909 109.177 48.8737 109.353 48.687 109.611C48.5002 109.87 48.3057 110.206 48.1034 110.622Z" fill="#141513"/>
<path d="M41.7267 105.902L43.0986 106.85L44.0706 105.445L44.7906 105.942L43.8185 107.348L45.1904 108.297L44.7396 108.949L43.3677 108L42.3956 109.406L41.6757 108.908L42.6478 107.502L41.2759 106.554L41.7267 105.902Z" fill="#141513"/>
<path d="M36.8915 100.962C36.5405 101.271 36.1709 101.472 35.7829 101.565C35.387 101.657 35.0058 101.641 34.6393 101.516C34.2728 101.391 33.9457 101.166 33.6582 100.84C33.2943 100.427 33.0932 99.9987 33.0549 99.5556C33.0088 99.1119 33.1257 98.6825 33.4054 98.2673L34.0768 99.0293C33.9621 99.2404 33.9173 99.456 33.9424 99.676C33.9675 99.896 34.071 100.109 34.253 100.316C34.5077 100.605 34.8148 100.745 35.1741 100.737C35.5257 100.728 35.8853 100.561 36.2528 100.237C36.6204 99.9134 36.8328 99.5758 36.8901 99.2245C36.9438 98.8691 36.8432 98.5469 36.5885 98.2577C36.2282 97.8489 35.8102 97.7367 35.3344 97.9211L34.663 97.1591C35.0973 96.9525 35.5377 96.8946 35.9844 96.9852C36.427 97.0795 36.8266 97.329 37.1832 97.7337C37.4707 98.06 37.6532 98.4128 37.7306 98.7921C37.8039 99.175 37.7721 99.5552 37.6352 99.9327C37.4905 100.31 37.2426 100.653 36.8915 100.962Z" fill="#141513"/>
<path d="M33.0255 96.2824C32.6439 96.5337 32.2545 96.678 31.8573 96.7154C31.4571 96.7483 31.0873 96.682 30.7478 96.5167C30.4006 96.3498 30.1181 96.1009 29.9001 95.7699C29.7034 95.471 29.5921 95.1719 29.5663 94.8725C29.5329 94.5716 29.5597 94.2969 29.6466 94.0485L29.0949 94.4118L28.5727 93.6187L32.3726 91.1168L32.8948 91.9099L32.3293 92.2822C32.5964 92.2975 32.8654 92.3807 33.1363 92.5319C33.4072 92.683 33.6395 92.9057 33.8332 93.2C34.0481 93.5264 34.1621 93.8797 34.1752 94.26C34.1837 94.6432 34.0915 95.0137 33.8986 95.3714C33.6981 95.7275 33.4071 96.0312 33.0255 96.2824ZM30.9914 93.1631C30.7293 93.3356 30.5381 93.5407 30.4176 93.7781C30.2942 94.011 30.2394 94.2481 30.2533 94.4894C30.2671 94.7307 30.3407 94.9525 30.4739 95.1548C30.6071 95.3571 30.7818 95.5123 30.9979 95.6204C31.2095 95.7316 31.4482 95.7787 31.7139 95.7619C31.9721 95.7436 32.2321 95.6481 32.4942 95.4755C32.7563 95.303 32.9513 95.0988 33.0794 94.8629C33.2044 94.6224 33.2623 94.3799 33.253 94.1356C33.2361 93.8897 33.1626 93.6679 33.0324 93.4702C32.8992 93.2679 32.7245 93.1127 32.5084 93.0046C32.2922 92.8965 32.0527 92.8531 31.79 92.8745C31.5197 92.8944 31.2535 92.9906 30.9914 93.1631Z" fill="#141513"/>
<path d="M25.0814 86.255C24.9382 85.9271 24.8785 85.6048 24.9023 85.288C24.9239 84.9662 25.0365 84.6738 25.2399 84.4107C25.4412 84.1426 25.731 83.926 26.1093 83.7607L28.5685 82.6866L28.9419 83.5416L26.6114 84.5596C26.2381 84.7226 25.9939 84.9404 25.8787 85.213C25.7584 85.4878 25.7688 85.7866 25.9098 86.1094C26.0508 86.4323 26.2641 86.6455 26.5496 86.749C26.8278 86.8497 27.1536 86.8186 27.5269 86.6555L29.8574 85.6376L30.2309 86.4926L27.9004 87.5106C27.5271 87.6736 27.2828 87.8914 27.1676 88.164C27.0474 88.4388 27.0577 88.7376 27.1987 89.0604C27.3398 89.3833 27.553 89.5965 27.8385 89.7C28.1168 89.8007 28.4426 89.7696 28.8158 89.6065L31.1464 88.5886L31.5231 89.4512L27.3539 91.2722L26.9771 90.4096L27.4538 90.2014C27.2206 90.1351 27.0087 90.0144 26.8182 89.8394C26.6276 89.6643 26.4783 89.4532 26.3703 89.206C26.2249 88.8731 26.1655 88.5446 26.1922 88.2206C26.2189 87.8966 26.335 87.6056 26.5407 87.3476C26.2334 87.3316 25.9482 87.2219 25.6852 87.0185C25.417 86.8172 25.2158 86.5627 25.0814 86.255Z" fill="#141513"/>
<path d="M24.5119 81.5639C24.2707 81.4589 24.0477 81.2898 23.8429 81.0568C23.6382 80.8237 23.4943 80.5388 23.4115 80.2021C23.3167 79.8173 23.3268 79.4435 23.4416 79.0807C23.5497 78.714 23.7525 78.3976 24.0498 78.1317C24.3472 77.8658 24.7177 77.6782 25.1613 77.569C25.605 77.4598 26.0255 77.4527 26.423 77.5476C26.8152 77.6438 27.1496 77.8279 27.4264 78.0999C27.6964 78.3679 27.8788 78.6944 27.9735 79.0792C28.0564 79.416 28.0633 79.7317 27.9941 80.0265C27.9196 80.3226 27.8012 80.5785 27.6388 80.7942L30.3809 80.1193L30.6059 81.0333L24.0875 82.6377L23.8625 81.7237L24.5119 81.5639ZM25.3902 78.4991C25.0856 78.5741 24.8394 78.7027 24.6519 78.8849C24.4576 79.0631 24.33 79.2702 24.2691 79.5063C24.2015 79.7384 24.1967 79.972 24.2545 80.2072C24.3111 80.437 24.4238 80.6417 24.5928 80.8212C24.7603 80.9954 24.9722 81.119 25.2282 81.192C25.483 81.2597 25.7627 81.256 26.0674 81.181C26.372 81.106 26.6242 80.9788 26.8238 80.7993C27.0167 80.6157 27.1469 80.4079 27.2145 80.1759C27.2808 79.9385 27.2857 79.7049 27.2291 79.475C27.1712 79.2398 27.0585 79.0352 26.8909 78.861C26.7166 78.6828 26.4995 78.5605 26.2394 78.4941C25.9779 78.4224 25.6949 78.4241 25.3902 78.4991Z" fill="#141513"/>
<path d="M27.1692 73.7158C27.2054 74.0718 27.175 74.3985 27.078 74.6961C26.975 74.9888 26.8223 75.2284 26.6199 75.4149C26.4121 75.6021 26.1718 75.715 25.8991 75.7538L25.8006 74.7845C25.9906 74.7486 26.1429 74.6418 26.2577 74.4641C26.3664 74.2816 26.4079 74.0643 26.3823 73.8124C26.3556 73.5495 26.2857 73.3519 26.1726 73.2195C26.0535 73.0823 25.9146 73.0217 25.7558 73.0378C25.586 73.0551 25.4684 73.15 25.403 73.3227C25.337 73.4899 25.2725 73.7537 25.2095 74.1142C25.151 74.4632 25.0887 74.749 25.0228 74.9714C24.9569 75.1939 24.8417 75.3938 24.6771 75.571C24.5119 75.7427 24.2815 75.8436 23.9858 75.8736C23.7448 75.8981 23.5185 75.8492 23.3069 75.7268C23.0898 75.6051 22.9104 75.4186 22.7687 75.1674C22.6264 74.9107 22.5377 74.6099 22.5026 74.2649C22.4503 73.7501 22.5397 73.3233 22.7708 72.9844C22.9959 72.6406 23.3319 72.4349 23.7787 72.3674L23.8739 73.3038C23.673 73.3409 23.5198 73.4394 23.4143 73.5995C23.3089 73.7597 23.269 73.9657 23.2946 74.2176C23.3196 74.464 23.3854 74.6482 23.4918 74.7702C23.5983 74.8922 23.7282 74.9454 23.8815 74.9298C24.002 74.9175 24.0989 74.8634 24.1721 74.7674C24.2454 74.6715 24.3002 74.558 24.3367 74.427C24.3677 74.2966 24.4063 74.1046 24.4524 73.8509C24.5066 73.5134 24.5697 73.2359 24.6417 73.0183C24.7076 72.7958 24.8204 72.599 24.98 72.4278C25.1397 72.2567 25.3643 72.1536 25.654 72.1186C25.9114 72.0925 26.1487 72.1403 26.3658 72.2621C26.5829 72.3839 26.7623 72.5703 26.904 72.8215C27.0452 73.0672 27.1336 73.3653 27.1692 73.7158Z" fill="#141513"/>
<path d="M25.6626 63.9272C25.6381 64.1238 25.5692 64.2983 25.4559 64.4506C25.3379 64.5968 25.1935 64.7092 25.0229 64.7877C24.8474 64.8602 24.6614 64.8842 24.4647 64.8597C24.1643 64.8222 23.9232 64.6868 23.7415 64.4534C23.5598 64.2199 23.4873 63.9557 23.5241 63.6608C23.5622 63.3549 23.6979 63.1111 23.9314 62.9293C24.1648 62.7476 24.4317 62.6755 24.7322 62.7129C25.0326 62.7504 25.2737 62.8858 25.4554 63.1192C25.6316 63.352 25.7007 63.6213 25.6626 63.9272Z" fill="#141513"/>
<path d="M24.8573 54.7972C24.3875 54.591 24.0794 54.2708 23.9329 53.8366C23.7882 53.3973 23.8119 52.9139 24.004 52.3863C24.1359 52.0242 24.3145 51.7348 24.5399 51.5181C24.7652 51.3014 25.0136 51.1663 25.285 51.1128C25.5564 51.0593 25.8317 51.0834 26.111 51.1852C26.4317 51.3019 26.6748 51.4871 26.8402 51.7407C27.0056 51.9942 27.0838 52.2541 27.0748 52.5203L27.1058 52.5316C27.31 52.2603 27.5674 52.0845 27.8778 52.0042C28.183 51.9221 28.5271 51.9507 28.9098 52.0901C29.215 52.2012 29.4611 52.3699 29.6482 52.5962C29.8353 52.8225 29.9487 53.0981 29.9885 53.4231C30.0232 53.7462 29.9708 54.0992 29.8315 54.4819C29.628 55.0405 29.3182 55.4491 28.9019 55.7076C28.4822 55.959 27.9988 55.9997 27.4514 55.8297L27.7622 54.9762C28.0439 55.0553 28.3075 55.0312 28.553 54.9039C28.7934 54.7747 28.9729 54.5471 29.0916 54.2213C29.2065 53.9058 29.2096 53.6316 29.1011 53.3987C28.9874 53.164 28.7935 52.9967 28.5193 52.8969C28.1573 52.7651 27.8589 52.7882 27.6241 52.9664C27.3861 53.1374 27.1804 53.4609 27.0071 53.9368L26.9337 54.1385L26.2044 53.8729L26.2806 53.6634C26.428 53.2426 26.474 52.8991 26.4187 52.6328C26.3652 52.3615 26.1936 52.173 25.9039 52.0676C25.6557 51.9772 25.4299 51.9858 25.2267 52.0934C25.0183 52.1991 24.8604 52.3994 24.7531 52.6942C24.6476 52.9838 24.6407 53.2362 24.7323 53.4511C24.8187 53.6642 24.9649 53.8258 25.1709 53.936L24.8573 54.7972Z" fill="#141513"/>
<path d="M28.5684 49.5578C27.7278 49.1103 27.1469 48.6201 26.8256 48.0874C26.5021 47.5472 26.5252 46.9297 26.8952 46.2349C27.2651 45.5401 27.7632 45.1785 28.3894 45.1502C29.0133 45.1145 29.7456 45.3204 30.5862 45.7679C31.4365 46.2206 32.0259 46.7184 32.3543 47.2612C32.6804 47.7965 32.6585 48.4116 32.2885 49.1064C31.9186 49.8012 31.4192 50.1652 30.7904 50.1983C30.1594 50.2241 29.4187 50.0106 28.5684 49.5578ZM30.1516 46.5842C29.758 46.3747 29.411 46.2242 29.1104 46.1327C28.8124 46.0365 28.537 46.0208 28.2842 46.0857C28.0265 46.1481 27.8161 46.3323 27.6532 46.6384C27.4902 46.9445 27.4548 47.2219 27.5469 47.4705C27.6342 47.7166 27.7996 47.9387 28.0433 48.137C28.2895 48.3305 28.6094 48.532 29.003 48.7415C29.4111 48.9588 29.7666 49.1169 30.0694 49.2158C30.3723 49.3147 30.6501 49.3316 30.9029 49.2667C31.1584 49.1969 31.3676 49.0089 31.5306 48.7028C31.6935 48.3967 31.7314 48.1206 31.6441 47.8746C31.5594 47.6237 31.3915 47.4003 31.1404 47.2042C30.8894 47.0082 30.5597 46.8015 30.1516 46.5842Z" fill="#141513"/>
<path d="M31.978 43.7426C31.2116 43.1774 30.7082 42.6079 30.4679 42.0341C30.2265 41.4525 30.3393 40.845 30.8065 40.2114C31.2736 39.5779 31.819 39.2927 32.4427 39.3559C33.0652 39.4113 33.7597 39.7217 34.5262 40.2868C35.3015 40.8585 35.8121 41.4368 36.058 42.0216C36.3027 42.5987 36.1914 43.204 35.7243 43.8376C35.2571 44.4711 34.7101 44.7585 34.0832 44.6998C33.4551 44.6333 32.7534 44.3143 31.978 43.7426ZM33.9773 41.0311C33.6185 40.7665 33.297 40.5671 33.013 40.4329C32.7322 40.2943 32.462 40.2387 32.2024 40.2661C31.9384 40.2903 31.7034 40.4419 31.4976 40.721C31.2918 41.0002 31.2164 41.2694 31.2714 41.5288C31.3219 41.7849 31.4532 42.0288 31.6654 42.2605C31.8808 42.4877 32.168 42.7337 32.5269 42.9983C32.899 43.2727 33.2277 43.4808 33.5129 43.6227C33.7981 43.7646 34.0705 43.8219 34.3301 43.7944C34.593 43.7626 34.8273 43.6071 35.0331 43.328C35.239 43.0488 35.3166 42.7812 35.2661 42.5251C35.2188 42.2646 35.0852 42.019 34.8654 41.7885C34.6455 41.558 34.3495 41.3056 33.9773 41.0311Z" fill="#141513"/>
<path d="M39.7756 35.6195L38.5936 36.7964L39.7996 38.0076L39.1793 38.6251L37.9734 37.4139L36.7914 38.5907L36.2322 38.029L37.4141 36.8522L36.2081 35.641L36.8284 35.0234L38.0343 36.2346L39.2163 35.0578L39.7756 35.6195Z" fill="#141513"/>
<path d="M45.5128 31.7591C45.2724 31.3578 45.1419 30.9579 45.1214 30.5595C45.1028 30.1535 45.1881 29.7816 45.3771 29.4438C45.5662 29.106 45.8472 28.8253 46.2203 28.6018C46.6925 28.319 47.15 28.1989 47.5927 28.2417C48.0373 28.277 48.4384 28.4698 48.7959 28.8203L47.9247 29.3422C47.7379 29.1911 47.534 29.1078 47.3131 29.0926C47.0922 29.0773 46.8637 29.1404 46.6276 29.2818C46.297 29.4798 46.1033 29.7563 46.0464 30.1112C45.9914 30.4586 46.0898 30.8424 46.3416 31.2627C46.5933 31.683 46.8867 31.9532 47.2218 32.0733C47.5615 32.1906 47.8967 32.1503 48.2273 31.9522C48.6948 31.6722 48.881 31.2815 48.786 30.7801L49.6573 30.2582C49.7815 30.7228 49.7586 31.1665 49.5883 31.5893C49.4153 32.0074 49.0974 32.355 48.6346 32.6322C48.2615 32.8557 47.8815 32.9711 47.4944 32.9784C47.1045 32.9809 46.7364 32.8806 46.3901 32.6774C46.0457 32.4666 45.7532 32.1605 45.5128 31.7591Z" fill="#141513"/>
<path d="M50.8161 28.8092C50.6383 28.3884 50.5671 27.9792 50.6024 27.5819C50.6428 27.1824 50.7751 26.8307 50.9993 26.5268C51.2264 26.2158 51.5226 25.9831 51.8877 25.8289C52.2173 25.6897 52.5316 25.6346 52.8307 25.6636C53.1327 25.6854 53.3979 25.7616 53.6264 25.8922L53.3694 25.2837L54.2441 24.9142L56.0144 29.1052L55.1397 29.4747L54.8762 28.851C54.8127 29.1109 54.682 29.3603 54.4842 29.5992C54.2863 29.8382 54.0251 30.0262 53.7006 30.1633C53.3406 30.3153 52.9724 30.3633 52.5961 30.3071C52.2177 30.2459 51.8701 30.0879 51.5534 29.8333C51.2397 29.5715 50.9939 29.2301 50.8161 28.8092ZM54.2529 27.3754C54.1308 27.0864 53.964 26.8611 53.7523 26.6995C53.5457 26.5358 53.3225 26.4388 53.0827 26.4087C52.8429 26.3785 52.6114 26.4106 52.3883 26.5048C52.1652 26.5991 51.9808 26.7427 51.8353 26.9356C51.6876 27.1235 51.5978 27.3496 51.5661 27.614C51.5373 27.8712 51.5839 28.1443 51.706 28.4333C51.8281 28.7223 51.9935 28.9513 52.2023 29.12C52.4161 29.2867 52.6439 29.3876 52.8859 29.4228C53.1308 29.4509 53.3623 29.4188 53.5803 29.3267C53.8034 29.2325 53.9878 29.0889 54.1333 28.8959C54.2789 28.703 54.365 28.4754 54.3917 28.2131C54.4213 27.9437 54.375 27.6644 54.2529 27.3754Z" fill="#141513"/>
<path d="M62.1209 22.8169C62.4693 22.7356 62.7971 22.7354 63.1043 22.8164C63.4168 22.8961 63.6839 23.0599 63.9057 23.3077C64.1328 23.5543 64.2932 23.8786 64.387 24.2807L64.9968 26.894L64.0881 27.106L63.5103 24.6294C63.4178 24.2327 63.2479 23.9529 63.0008 23.7901C62.7524 23.622 62.4567 23.5779 62.1136 23.658C61.7705 23.738 61.5221 23.909 61.3685 24.171C61.2189 24.4263 61.1904 24.7523 61.2829 25.149L61.8608 27.6257L60.9521 27.8377L60.3743 25.361C60.2818 24.9643 60.1119 24.6846 59.8648 24.5218C59.6164 24.3536 59.3207 24.3096 58.9776 24.3896C58.6345 24.4697 58.3861 24.6407 58.2325 24.9026C58.0829 25.158 58.0544 25.484 58.1469 25.8807L58.7248 28.3573L57.8081 28.5712L56.7744 24.1406L57.6911 23.9267L57.8093 24.4333C57.9168 24.216 58.074 24.0296 58.2807 23.8739C58.4875 23.7183 58.7222 23.6098 58.9849 23.5486C59.3387 23.466 59.6725 23.4673 59.9862 23.5523C60.3 23.6374 60.5651 23.8045 60.7815 24.0536C60.853 23.7543 61.0126 23.4937 61.2605 23.272C61.5071 23.0449 61.7939 22.8932 62.1209 22.8169Z" fill="#141513"/>
<path d="M66.835 23.1067C66.982 22.8885 67.1888 22.6999 67.4551 22.5408C67.7215 22.3818 68.0277 22.2921 68.3739 22.2718C68.7696 22.2485 69.1353 22.3262 69.4712 22.505C69.8122 22.6779 70.0865 22.9348 70.294 23.2755C70.5015 23.6162 70.6187 24.0146 70.6455 24.4707C70.6723 24.9268 70.603 25.3416 70.4375 25.7153C70.2716 26.0835 70.0298 26.3789 69.7121 26.6016C69.3995 26.8185 69.0454 26.9386 68.6497 26.9619C68.3036 26.9822 67.9918 26.9316 67.7144 26.8101C67.4368 26.6831 67.2066 26.5201 67.024 26.3213L67.1898 29.1404L66.2501 29.1956L65.856 22.4943L66.7957 22.439L66.835 23.1067ZM69.6893 24.5269C69.6709 24.2137 69.5891 23.9483 69.444 23.7307C69.3041 23.5074 69.1235 23.3443 68.9024 23.2415C68.6865 23.1329 68.4576 23.0857 68.2159 23.0999C67.9796 23.1138 67.7578 23.1875 67.5506 23.321C67.3489 23.4542 67.1889 23.64 67.0706 23.8786C66.9578 24.1168 66.9106 24.3925 66.929 24.7058C66.9474 25.019 67.0268 25.29 67.1671 25.5189C67.3125 25.7419 67.4932 25.9078 67.7091 26.0164C67.9305 26.1247 68.1594 26.1719 68.3957 26.158C68.6375 26.1437 68.8592 26.07 69.0609 25.9369C69.2678 25.7979 69.4275 25.6065 69.54 25.3628C69.658 25.1188 69.7078 24.8401 69.6893 24.5269Z" fill="#141513"/>
<path d="M74.0732 27.1467C73.7166 27.1176 73.4008 27.0284 73.1258 26.879C72.8567 26.7245 72.6488 26.5308 72.5021 26.298C72.3558 26.0596 72.2883 25.8028 72.2997 25.5276L73.2708 25.6067C73.2716 25.8001 73.349 25.9693 73.5028 26.1144C73.6626 26.2544 73.8687 26.3347 74.1211 26.3553C74.3845 26.3768 74.5915 26.3439 74.7422 26.2568C74.8988 26.1646 74.9836 26.039 74.9966 25.8799C75.0104 25.7098 74.9384 25.5769 74.7805 25.4812C74.6281 25.3859 74.3804 25.2746 74.0373 25.1472C73.7047 25.0263 73.435 24.9132 73.2282 24.8079C73.0214 24.7027 72.8458 24.5531 72.7014 24.3591C72.5626 24.1655 72.5052 23.9206 72.5293 23.6243C72.549 23.3829 72.6382 23.1693 72.7969 22.9834C72.9561 22.792 73.1721 22.6495 73.4448 22.5557C73.7231 22.4624 74.035 22.4298 74.3806 22.458C74.8964 22.5 75.2999 22.6654 75.5911 22.9542C75.8883 23.238 76.0296 23.6057 76.0149 24.0574L75.0767 23.981C75.0768 23.7767 75.0077 23.6081 74.8694 23.4753C74.7311 23.3426 74.5357 23.2659 74.2834 23.2453C74.0365 23.2252 73.8434 23.2564 73.7041 23.339C73.5648 23.4215 73.4889 23.5396 73.4764 23.6932C73.4666 23.8139 73.5022 23.919 73.5833 24.0084C73.6644 24.0979 73.766 24.1724 73.8882 24.2321C74.0108 24.2863 74.1926 24.3591 74.4337 24.4505C74.7557 24.5651 75.0172 24.6776 75.2181 24.7878C75.4249 24.893 75.598 25.0397 75.7373 25.2278C75.8766 25.4158 75.9372 25.6555 75.919 25.9467C75.898 26.2046 75.8079 26.4292 75.6487 26.6206C75.4895 26.812 75.2735 26.9545 75.0008 27.0483C74.7335 27.1425 74.4243 27.1753 74.0732 27.1467Z" fill="#141513"/>
<path d="M83.9715 27.4422C83.7826 27.3824 83.6235 27.283 83.4943 27.1439C83.372 27.0013 83.2877 26.8389 83.2415 26.6568C83.2021 26.4712 83.2123 26.2839 83.2721 26.0949C83.3634 25.8063 83.5404 25.5938 83.8029 25.4575C84.0655 25.3212 84.3385 25.2979 84.6219 25.3876C84.9157 25.4806 85.1308 25.6584 85.2671 25.921C85.4034 26.1835 85.4259 26.4591 85.3346 26.7478C85.2432 27.0364 85.0662 27.2489 84.8037 27.3852C84.5428 27.5162 84.2654 27.5352 83.9715 27.4422Z" fill="#141513"/>
<path d="M93.0968 28.3116C93.3849 27.8871 93.7557 27.6422 94.2092 27.577C94.6675 27.5145 95.1386 27.6256 95.6225 27.9103C95.9546 28.1057 96.2068 28.3339 96.379 28.5949C96.5511 28.8559 96.6389 29.1246 96.6422 29.4012C96.6455 29.6778 96.5718 29.9442 96.4211 30.2004C96.248 30.4946 96.0218 30.6999 95.7424 30.8166C95.463 30.9332 95.1933 30.9629 94.9332 30.9057L94.9164 30.9341C95.1461 31.1842 95.2722 31.4692 95.2948 31.7891C95.3202 32.1042 95.2296 32.4373 95.023 32.7883C94.8583 33.0683 94.6477 33.2797 94.3912 33.4225C94.1347 33.5654 93.843 33.6269 93.5162 33.6071C93.1922 33.5825 92.8546 33.4669 92.5036 33.2603C91.9912 32.9589 91.6457 32.58 91.4671 32.1236C91.296 31.6653 91.3438 31.1825 91.6104 30.6751L92.3932 31.1357C92.2643 31.3983 92.2401 31.6619 92.3207 31.9265C92.4042 32.1864 92.5953 32.4042 92.8942 32.5801C93.1836 32.7504 93.4527 32.8033 93.7013 32.7388C93.9528 32.6696 94.1525 32.5093 94.3005 32.2578C94.4959 31.9257 94.5273 31.6281 94.3947 31.3649C94.2697 31.0997 93.989 30.8388 93.5525 30.5819L93.3675 30.4731L93.7611 29.8041L93.9532 29.9172C94.3403 30.1385 94.6698 30.2462 94.9416 30.24C95.2182 30.2367 95.4346 30.1022 95.591 29.8365C95.7249 29.6088 95.7575 29.3852 95.6886 29.1659C95.6224 28.9417 95.4542 28.7501 95.1837 28.591C94.918 28.4347 94.6712 28.3821 94.4432 28.4331C94.2179 28.4794 94.0325 28.5938 93.8867 28.7764L93.0968 28.3116Z" fill="#141513"/>
<path d="M97.5752 32.9101C98.1679 32.1647 98.7554 31.6825 99.3377 31.4633C99.9276 31.2432 100.531 31.3781 101.147 31.8681C101.763 32.3581 102.028 32.9135 101.942 33.5344C101.864 34.1545 101.528 34.8372 100.936 35.5825C100.336 36.3365 99.7396 36.8257 99.1462 37.0501C98.5606 37.2736 97.9597 37.1403 97.3436 36.6504C96.7275 36.1604 96.4603 35.6033 96.5418 34.9789C96.6311 34.3536 96.9756 33.664 97.5752 32.9101ZM100.212 35.0069C100.489 34.658 100.7 34.344 100.845 34.065C100.994 33.7895 101.059 33.5215 101.041 33.2611C101.027 32.9964 100.884 32.7561 100.612 32.5402C100.341 32.3243 100.075 32.2391 99.8133 32.2846C99.5555 32.3258 99.307 32.4481 99.0677 32.6517C98.8328 32.8587 98.5765 33.1367 98.299 33.4857C98.0112 33.8476 97.7912 34.1684 97.639 34.4483C97.4868 34.7281 97.4196 34.9983 97.4376 35.2587C97.4598 35.5226 97.6067 35.7624 97.8781 35.9783C98.1495 36.1941 98.4141 36.2815 98.6719 36.2403C98.934 36.2026 99.1843 36.0781 99.4226 35.8668C99.661 35.6554 99.9241 35.3688 100.212 35.0069Z" fill="#141513"/>
<path d="M102.673 37.3176C103.368 36.6665 104.019 36.2749 104.627 36.1429C105.243 36.011 105.82 36.2323 106.358 36.8068C106.896 37.3812 107.078 37.9693 106.902 38.5711C106.735 39.1732 106.303 39.7998 105.609 40.4509C104.906 41.1095 104.244 41.5066 103.624 41.6422C103.013 41.7781 102.437 41.5588 101.899 40.9843C101.361 40.4099 101.178 39.8198 101.349 39.2139C101.529 38.6084 101.97 37.9763 102.673 37.3176ZM104.976 39.776C105.302 39.4712 105.556 39.1913 105.74 38.9363C105.927 38.6854 106.031 38.4298 106.051 38.1695C106.075 37.9055 105.969 37.647 105.731 37.3939C105.494 37.1408 105.243 37.0177 104.978 37.0247C104.717 37.0279 104.454 37.1127 104.187 37.2793C103.925 37.4499 103.631 37.6876 103.305 37.9925C102.968 38.3086 102.703 38.594 102.512 38.8487C102.321 39.1034 102.215 39.3609 102.195 39.6212C102.178 39.8855 102.289 40.1442 102.526 40.3972C102.763 40.6503 103.012 40.7752 103.273 40.7721C103.538 40.7729 103.804 40.6861 104.07 40.5118C104.337 40.3374 104.639 40.0922 104.976 39.776Z" fill="#141513"/>
<path d="M109.243 46.4627L108.3 45.0867L106.89 46.0526L106.396 45.3306L107.806 44.3646L106.863 42.9886L107.517 42.5406L108.46 43.9166L109.87 42.9506L110.364 43.6727L108.954 44.6387L109.897 46.0147L109.243 46.4627Z" fill="#141513"/>
<path d="M112.001 52.8036C112.44 52.6401 112.856 52.5844 113.252 52.6366C113.655 52.692 114.005 52.8434 114.303 53.0906C114.601 53.3379 114.825 53.6652 114.977 54.0727C115.17 54.5884 115.205 55.0601 115.082 55.4877C114.967 55.9185 114.705 56.2779 114.295 56.5658L113.94 55.6143C114.122 55.458 114.241 55.2727 114.296 55.0582C114.352 54.8438 114.331 54.6076 114.235 54.3497C114.1 53.9887 113.863 53.748 113.525 53.6276C113.193 53.5105 112.798 53.5375 112.339 53.7088C111.88 53.88 111.561 54.1195 111.382 54.4271C111.205 54.74 111.184 55.0769 111.318 55.4379C111.509 55.9485 111.859 56.2026 112.369 56.2002L112.724 57.1517C112.245 57.1896 111.813 57.0864 111.428 56.8423C111.048 56.5962 110.764 56.2204 110.576 55.715C110.424 55.3075 110.379 54.9129 110.442 54.5309C110.511 54.147 110.676 53.8033 110.939 53.4996C111.209 53.1992 111.563 52.9672 112.001 52.8036Z" fill="#141513"/>
<path d="M113.937 58.5568C114.383 58.4584 114.798 58.4626 115.182 58.5695C115.568 58.6818 115.89 58.8757 116.148 59.1514C116.412 59.4312 116.587 59.7647 116.673 60.1517C116.75 60.5011 116.747 60.8203 116.664 61.1091C116.588 61.4021 116.465 61.6491 116.295 61.8501L116.94 61.7078L117.144 62.6351L112.702 63.6149L112.497 62.6877L113.158 62.5418C112.914 62.4322 112.693 62.2584 112.494 62.0204C112.295 61.7825 112.157 61.4915 112.081 61.1475C111.997 60.7658 112.017 60.3951 112.14 60.0352C112.269 59.6742 112.488 59.3611 112.796 59.0959C113.11 58.8349 113.49 58.6552 113.937 58.5568ZM114.722 62.1968C115.029 62.1293 115.281 62.0061 115.478 61.8273C115.677 61.6538 115.812 61.4519 115.886 61.2216C115.959 60.9913 115.969 60.7578 115.917 60.5213C115.865 60.2848 115.757 60.0774 115.594 59.8992C115.436 59.7199 115.23 59.5906 114.976 59.5114C114.728 59.4363 114.451 59.4326 114.145 59.5002C113.838 59.5678 113.583 59.6889 113.379 59.8635C113.177 60.0435 113.036 60.2492 112.957 60.4808C112.885 60.7165 112.875 60.9499 112.926 61.1811C112.978 61.4176 113.086 61.6249 113.249 61.8031C113.412 61.9813 113.62 62.1073 113.873 62.1812C114.133 62.2592 114.416 62.2644 114.722 62.1968Z" fill="#141513"/>
<path d="M117.777 70.7575C117.794 71.1149 117.735 71.4373 117.599 71.7246C117.464 72.0175 117.255 72.2505 116.971 72.4235C116.687 72.6021 116.339 72.701 115.926 72.7202L113.246 72.8452L113.202 71.9132L115.743 71.7947C116.15 71.7757 116.456 71.6595 116.661 71.4461C116.871 71.2324 116.968 70.9495 116.952 70.5976C116.935 70.2457 116.812 69.9704 116.582 69.7717C116.358 69.5783 116.043 69.491 115.636 69.51L113.096 69.6285L113.052 68.6965L115.593 68.578C116 68.559 116.306 68.4428 116.51 68.2293C116.721 68.0156 116.818 67.7328 116.802 67.3809C116.785 67.029 116.662 66.7537 116.432 66.555C116.208 66.3615 115.893 66.2743 115.486 66.2933L112.946 66.4118L112.902 65.4715L117.447 65.2595L117.49 66.1998L116.971 66.224C117.165 66.3693 117.32 66.5577 117.435 66.7893C117.551 67.0208 117.615 67.2713 117.627 67.5408C117.644 67.9037 117.582 68.2317 117.442 68.5248C117.301 68.8179 117.089 69.0483 116.804 69.2158C117.086 69.3405 117.313 69.5448 117.486 69.8288C117.665 70.1125 117.762 70.4221 117.777 70.7575Z" fill="#141513"/>
<path d="M116.637 75.3439C116.825 75.5281 116.973 75.7657 117.081 76.0565C117.189 76.3473 117.222 76.6648 117.179 77.0089C117.13 77.4022 116.987 77.7477 116.75 78.0455C116.518 78.3495 116.216 78.5726 115.843 78.7148C115.471 78.857 115.057 78.8998 114.604 78.8434C114.151 78.7869 113.755 78.6434 113.418 78.4128C113.086 78.1829 112.839 77.8915 112.678 77.5385C112.522 77.1918 112.468 76.8217 112.517 76.4284C112.56 76.0843 112.666 75.7869 112.836 75.5363C113.011 75.2863 113.213 75.0895 113.442 74.946L110.64 74.5972L110.756 73.6631L117.417 74.4924L117.301 75.4265L116.637 75.3439ZM114.722 77.8929C115.034 77.9317 115.31 77.8995 115.55 77.7962C115.795 77.6992 115.988 77.5513 116.129 77.3525C116.275 77.1599 116.363 76.9434 116.393 76.7031C116.422 76.4682 116.39 76.2367 116.297 76.0087C116.202 75.7862 116.049 75.5951 115.835 75.4354C115.622 75.2812 115.359 75.1847 115.048 75.146C114.736 75.1072 114.455 75.136 114.205 75.2324C113.959 75.335 113.763 75.4825 113.617 75.6752C113.471 75.8732 113.383 76.0897 113.353 76.3246C113.323 76.5649 113.356 76.7964 113.45 77.0189C113.549 77.2476 113.708 77.4394 113.928 77.5943C114.146 77.7546 114.411 77.8542 114.722 77.8929Z" fill="#141513"/>
<path d="M111.351 81.7255C111.444 81.3801 111.589 81.0857 111.786 80.8424C111.987 80.6059 112.215 80.4366 112.471 80.3346C112.732 80.2341 112.996 80.2144 113.265 80.2755L113.011 81.2161C112.82 81.1818 112.64 81.2271 112.469 81.3521C112.303 81.4838 112.186 81.6719 112.12 81.9163C112.051 82.1714 112.046 82.381 112.104 82.545C112.167 82.7157 112.275 82.8219 112.429 82.8636C112.594 82.9081 112.737 82.8614 112.86 82.7235C112.981 82.5909 113.136 82.3675 113.323 82.0533C113.503 81.7482 113.663 81.5035 113.804 81.3193C113.945 81.135 114.124 80.9895 114.341 80.8828C114.557 80.7813 114.808 80.7694 115.095 80.8469C115.329 80.9101 115.523 81.0366 115.676 81.2265C115.836 81.4178 115.937 81.656 115.979 81.9413C116.021 82.2318 115.996 82.5445 115.906 82.8793C115.771 83.3788 115.535 83.7455 115.198 83.9795C114.865 84.2203 114.477 84.2924 114.036 84.1959L114.282 83.2872C114.482 83.3244 114.661 83.287 114.816 83.1751C114.972 83.0632 115.083 82.8851 115.149 82.6406C115.214 82.4015 115.218 82.2059 115.162 82.054C115.106 81.902 115.004 81.806 114.855 81.7658C114.738 81.7342 114.628 81.7501 114.526 81.8136C114.423 81.8771 114.331 81.9635 114.25 82.0728C114.175 82.1835 114.07 82.3491 113.937 82.5696C113.765 82.8655 113.607 83.1022 113.462 83.2797C113.321 83.464 113.146 83.6075 112.936 83.7104C112.725 83.8132 112.479 83.8293 112.196 83.7585C111.946 83.691 111.741 83.5616 111.582 83.3703C111.423 83.179 111.322 82.9408 111.279 82.6555C111.235 82.3756 111.259 82.0656 111.351 81.7255Z" fill="#141513"/>
<path d="M109.26 91.407C109.353 91.232 109.48 91.0937 109.64 90.9919C109.802 90.8975 109.977 90.8441 110.165 90.8316C110.354 90.8266 110.537 90.8707 110.712 90.9638C110.979 91.1061 111.156 91.3187 111.242 91.6016C111.329 91.8845 111.302 92.1572 111.162 92.4196C111.017 92.6917 110.803 92.8709 110.521 92.9573C110.238 93.0436 109.963 93.0157 109.695 92.8734C109.428 92.7312 109.251 92.5186 109.165 92.2356C109.083 91.9553 109.115 91.6791 109.26 91.407Z" fill="#141513"/>
<path d="M106.749 100.222C107.114 100.583 107.288 100.992 107.269 101.45C107.248 101.912 107.053 102.355 106.685 102.779C106.433 103.07 106.162 103.276 105.874 103.398C105.587 103.52 105.306 103.558 105.034 103.511C104.761 103.464 104.513 103.343 104.288 103.148C104.03 102.925 103.869 102.665 103.805 102.369C103.741 102.073 103.761 101.802 103.865 101.557L103.84 101.535C103.552 101.716 103.249 101.788 102.93 101.752C102.616 101.72 102.305 101.57 101.997 101.304C101.752 101.091 101.582 100.845 101.488 100.567C101.394 100.289 101.387 99.9909 101.465 99.6731C101.549 99.359 101.723 99.048 101.99 98.7403C102.38 98.2911 102.815 98.0202 103.296 97.9274C103.778 97.8425 104.244 97.9771 104.695 98.3314L104.1 99.0176C103.865 98.8431 103.61 98.7714 103.335 98.8027C103.065 98.8375 102.816 98.986 102.588 99.248C102.368 99.5016 102.267 99.7566 102.286 100.013C102.308 100.273 102.429 100.498 102.65 100.689C102.941 100.942 103.228 101.027 103.511 100.944C103.794 100.869 104.102 100.641 104.434 100.258L104.574 100.096L105.161 100.604L105.015 100.773C104.727 101.113 104.561 101.418 104.518 101.686C104.471 101.959 104.564 102.196 104.797 102.398C104.996 102.571 105.21 102.644 105.438 102.616C105.671 102.591 105.89 102.461 106.095 102.224C106.297 101.991 106.394 101.758 106.385 101.524C106.38 101.294 106.302 101.091 106.149 100.915L106.749 100.222Z" fill="#141513"/>
<path d="M101.416 103.792C102.042 104.511 102.409 105.176 102.519 105.788C102.628 106.408 102.386 106.977 101.792 107.494C101.199 108.011 100.604 108.17 100.009 107.973C99.4137 107.784 98.8033 107.33 98.178 106.612C97.5454 105.885 97.1727 105.21 97.0598 104.585C96.9464 103.969 97.1865 103.402 97.7802 102.885C98.3739 102.368 98.9703 102.207 99.5695 102.4C100.168 102.602 100.784 103.066 101.416 103.792ZM98.8755 106.004C99.1682 106.341 99.4387 106.605 99.6867 106.798C99.9307 106.994 100.182 107.107 100.442 107.137C100.705 107.171 100.967 107.074 101.228 106.846C101.49 106.618 101.622 106.372 101.625 106.107C101.631 105.846 101.556 105.579 101.399 105.307C101.238 105.038 101.012 104.736 100.719 104.4C100.415 104.051 100.14 103.776 99.892 103.576C99.6445 103.375 99.391 103.26 99.1317 103.23C98.8682 103.204 98.6056 103.305 98.3441 103.533C98.0825 103.761 97.9486 104.005 97.9422 104.266C97.9317 104.531 98.0087 104.799 98.1732 105.072C98.3378 105.345 98.5718 105.656 98.8755 106.004Z" fill="#141513"/>
<path d="M96.1533 108.006C96.6674 108.807 96.9341 109.519 96.9536 110.141C96.9715 110.77 96.6491 111.298 95.9864 111.723C95.3238 112.147 94.7125 112.219 94.1526 111.937C93.5909 111.663 93.0531 111.125 92.539 110.324C92.019 109.513 91.7486 108.79 91.7278 108.156C91.7053 107.53 92.0254 107.004 92.688 106.579C93.3506 106.154 93.9642 106.081 94.5288 106.36C95.0918 106.646 95.6332 107.195 96.1533 108.006ZM93.3175 109.824C93.5582 110.2 93.7872 110.501 94.0046 110.728C94.2173 110.957 94.4498 111.106 94.7021 111.173C94.9574 111.245 95.231 111.187 95.5229 111C95.8148 110.812 95.9814 110.588 96.0227 110.326C96.067 110.069 96.0314 109.794 95.916 109.502C95.7959 109.213 95.6155 108.88 95.3748 108.505C95.1252 108.116 94.8925 107.804 94.6768 107.57C94.4611 107.335 94.2271 107.184 93.9748 107.117C93.7179 107.053 93.4435 107.115 93.1516 107.302C92.8596 107.489 92.6916 107.711 92.6473 107.969C92.5984 108.229 92.6354 108.506 92.7585 108.8C92.8815 109.094 93.0679 109.435 93.3175 109.824Z" fill="#141513"/>
<path d="M85.9649 112.805L87.4892 112.128L86.7953 110.566L87.5952 110.211L88.2891 111.773L89.8133 111.096L90.1351 111.82L88.6108 112.497L89.3047 114.059L88.5048 114.415L87.811 112.853L86.2867 113.53L85.9649 112.805Z" fill="#141513"/>
<path d="M70.4055 52.4774L84.6443 84.0189L74.7955 87.8745L59.0599 84.7344L51.4453 77.394L76.6997 53.7335M74.7936 87.8718L69.9369 71.212L59.0579 84.7317" stroke="#141513" stroke-width="2.47709" stroke-miterlimit="10"/>
</svg>
