<svg width="16" height="18" viewBox="0 0 16 18" fill="none" xmlns="http://www.w3.org/2000/svg">
<path d="M4.61258 6.56335V3.28062C4.61258 2.40184 5.32497 1.68945 6.20375 1.68945V1.68945C7.08253 1.68945 7.79492 2.40184 7.79492 3.28062V6.56335" stroke="white" stroke-width="1" stroke-miterlimit="10"/>
<path d="M1.83636 10.4298V12.7973C1.83636 15.1298 3.82399 16.9675 6.14935 16.785L10.4751 16.4455C12.5564 16.2821 14.1621 14.5455 14.1621 12.4577V8.37695" stroke="white" stroke-width="1" stroke-miterlimit="10"/>
<path d="M1.83633 10.4565C1.83633 7.30322 4.61673 6.56445 4.61673 6.56445L9.61077 9.21235C10.4144 9.67634 10.6898 10.704 10.2258 11.5076C9.76179 12.3113 8.73417 12.5866 7.93052 12.1226L5.98234 10.9437V13.0672" stroke="white" stroke-width="1" stroke-miterlimit="10"/>
<path d="M7.79227 8.25296V2.71812C7.79227 1.83934 8.50466 1.12695 9.38344 1.12695V1.12695C10.2622 1.12695 10.9746 1.83934 10.9746 2.71812V8.25296" stroke="white" stroke-width="1" stroke-miterlimit="10"/>
<path d="M10.9798 8.25618V8.15562C10.9798 7.27684 11.6922 6.56445 12.5709 6.56445V6.56445C13.4497 6.56445 14.1621 7.27684 14.1621 8.15562V8.25618" stroke="white" stroke-width="1" stroke-miterlimit="10"/>
<path d="M10.9798 8.12458V9.09047C10.9798 9.96925 11.6922 10.6816 12.5709 10.6816V10.6816C13.4497 10.6816 14.1621 9.96925 14.1621 9.09047V8.12458" stroke="white" stroke-width="1" stroke-miterlimit="10"/>
</svg>
