<svg width="16" height="18" viewBox="0 0 16 18" fill="none" xmlns="http://www.w3.org/2000/svg">
<path d="M4.61258 6.56256V2.71812C4.61258 1.83934 5.32497 1.12695 6.20375 1.12695V1.12695C7.08253 1.12695 7.79492 1.83934 7.79492 2.71812V6.56256" stroke="white" stroke-width="1" stroke-miterlimit="10"/>
<path d="M1.83636 10.433V12.8004C1.83636 15.1329 3.82399 16.9707 6.14935 16.7882L10.4751 16.4487C12.5564 16.2853 14.1621 14.5487 14.1621 12.4609V8.08789" stroke="white" stroke-width="1" stroke-miterlimit="10"/>
<path d="M1.83633 10.4565C1.83633 7.30322 4.61673 6.56445 4.61673 6.56445L9.61077 9.21235C10.4144 9.67634 10.6898 10.704 10.2258 11.5076C9.76179 12.3113 8.73417 12.5866 7.93052 12.1226L5.98234 10.9437V13.0672" stroke="white" stroke-width="1" stroke-miterlimit="10"/>
<path d="M7.79227 8.25296V2.71812C7.79227 1.83934 8.50466 1.12695 9.38344 1.12695V1.12695C10.2622 1.12695 10.9746 1.83934 10.9746 2.71812V8.25296" stroke="white" stroke-width="1" stroke-miterlimit="10"/>
<path d="M10.9798 8.25537V4.53062C10.9798 3.65184 11.6922 2.93945 12.5709 2.93945V2.93945C13.4497 2.93945 14.1621 3.65185 14.1621 4.53062V8.25537" stroke="white" stroke-width="1" stroke-miterlimit="10"/>
</svg>
