<svg width="16" height="18" viewBox="0 0 16 18" fill="none" xmlns="http://www.w3.org/2000/svg">
<path d="M4.61453 6.56256V2.71812C4.61453 1.83934 5.32693 1.12695 6.2057 1.12695V1.12695C7.08448 1.12695 7.79688 1.83934 7.79688 2.71812V7.58954" stroke="white" stroke-width="1" stroke-miterlimit="10"/>
<path d="M1.83831 10.4298V12.7973C1.83831 15.1298 3.82594 16.9675 6.1513 16.785L10.477 16.4455C12.5584 16.2821 14.1641 14.5455 14.1641 12.4577V8.37695" stroke="white" stroke-width="1" stroke-miterlimit="10"/>
<path d="M1.83829 10.4565C1.83829 7.30322 4.61868 6.56445 4.61868 6.56445L9.61272 9.21235C10.4164 9.67634 10.6917 10.704 10.2277 11.5076C9.76375 12.3113 8.73612 12.5866 7.93247 12.1226L5.98429 10.9437V13.0672" stroke="white" stroke-width="1" stroke-miterlimit="10"/>
<path d="M7.79422 8.25581V7.14781C7.79422 6.26903 8.50661 5.55664 9.38539 5.55664V5.55664C10.2642 5.55664 10.9766 6.26903 10.9766 7.14781V8.25581" stroke="white" stroke-width="1" stroke-miterlimit="10"/>
<path d="M10.9817 8.24871V8.17906C10.9817 7.30028 11.6941 6.58789 12.5729 6.58789V6.58789C13.4517 6.58789 14.1641 7.30028 14.1641 8.17906V8.24871" stroke="white" stroke-width="1" stroke-miterlimit="10"/>
<path d="M10.9817 8.12458V9.09047C10.9817 9.96925 11.6941 10.6816 12.5729 10.6816V10.6816C13.4517 10.6816 14.1641 9.96925 14.1641 9.09047V8.12458" stroke="white" stroke-width="1" stroke-miterlimit="10"/>
</svg>
