<svg width="30" height="32" viewBox="0 0 30 32" fill="none" xmlns="http://www.w3.org/2000/svg">
<path d="M8.6503 11.1918V3.98344C8.6503 2.33573 9.98603 1 11.6337 1V1C13.2815 1 14.6172 2.33573 14.6172 3.98344V13.1173" stroke="white" stroke-width="1.5" stroke-miterlimit="10"/>
<path d="M3.44782 18.4428V22.8818C3.44782 27.2553 7.17462 30.701 11.5347 30.3588L19.6454 29.7222C23.548 29.4159 26.5586 26.1598 26.5586 22.2452V14.5938" stroke="white" stroke-width="1.5" stroke-miterlimit="10"/>
<path d="M3.44874 18.4929C3.44874 12.5805 8.66198 11.1953 8.66198 11.1953L18.0258 16.1601C19.5326 17.0301 20.0489 18.9569 19.179 20.4637C18.309 21.9706 16.3822 22.4869 14.8753 21.6169L11.2225 19.4064V23.3879" stroke="white" stroke-width="1.5" stroke-miterlimit="10"/>
<path d="M14.6151 14.3656V12.2881C14.6151 10.6404 15.9509 9.30469 17.5986 9.30469V9.30469C19.2463 9.30469 20.582 10.6404 20.582 12.2881V14.3656" stroke="white" stroke-width="1.5" stroke-miterlimit="10"/>
<path d="M20.5917 14.3523V14.2217C20.5917 12.574 21.9274 11.2383 23.5751 11.2383V11.2383C25.2229 11.2383 26.5586 12.574 26.5586 14.2217V14.3523" stroke="white" stroke-width="1.5" stroke-miterlimit="10"/>
<path d="M20.5917 14.1196V15.9306C20.5917 17.5783 21.9274 18.9141 23.5751 18.9141V18.9141C25.2229 18.9141 26.5586 17.5783 26.5586 15.9306V14.1196" stroke="white" stroke-width="1.5" stroke-miterlimit="10"/>
</svg>
